<mxfile host="app.diagrams.net" modified="2023-10-29T12:57:19.673Z" agent="Mozilla/5.0 (Macintosh; Intel Mac OS X 10_15_7) AppleWebKit/605.1.15 (KHTML, like Gecko) Version/16.5.1 Safari/605.1.15" etag="MyJRodP1mYAttWaF3VyV" version="22.0.8" type="github">
  <diagram id="R2lEEEUBdFMjLlhIrx00" name="Page-1">
    <mxGraphModel dx="752" dy="761" grid="1" gridSize="10" guides="1" tooltips="1" connect="1" arrows="1" fold="1" page="1" pageScale="1" pageWidth="850" pageHeight="1100" math="0" shadow="0" extFonts="Permanent Marker^https://fonts.googleapis.com/css?family=Permanent+Marker">
      <root>
        <mxCell id="0" />
        <mxCell id="1" parent="0" />
        <mxCell id="2cnXxDh6B2zNEW4Uu-Ul-1" value="Gebäude&amp;nbsp;" style="whiteSpace=wrap;html=1;align=center;" vertex="1" parent="1">
          <mxGeometry x="390" y="270" width="100" height="40" as="geometry" />
        </mxCell>
        <mxCell id="2cnXxDh6B2zNEW4Uu-Ul-2" value="Werkstatt&amp;nbsp;" style="whiteSpace=wrap;html=1;align=center;" vertex="1" parent="1">
          <mxGeometry x="20" y="360" width="100" height="40" as="geometry" />
        </mxCell>
        <mxCell id="2cnXxDh6B2zNEW4Uu-Ul-5" value="" style="ellipse;whiteSpace=wrap;html=1;align=center;" vertex="1" parent="1">
          <mxGeometry x="620" y="250" width="100" height="40" as="geometry" />
        </mxCell>
        <mxCell id="2cnXxDh6B2zNEW4Uu-Ul-8" value="Mitarbeiter: VARCHAR (30)" style="ellipse;whiteSpace=wrap;html=1;align=center;" vertex="1" parent="1">
          <mxGeometry x="300" y="130" width="100" height="40" as="geometry" />
        </mxCell>
        <mxCell id="2cnXxDh6B2zNEW4Uu-Ul-10" value="" style="edgeStyle=entityRelationEdgeStyle;fontSize=12;html=1;endArrow=ERone;endFill=1;rounded=0;entryX=0.5;entryY=1;entryDx=0;entryDy=0;exitX=0;exitY=0.25;exitDx=0;exitDy=0;" edge="1" parent="1" source="2cnXxDh6B2zNEW4Uu-Ul-1" target="2cnXxDh6B2zNEW4Uu-Ul-8">
          <mxGeometry width="100" height="100" relative="1" as="geometry">
            <mxPoint x="450" y="360" as="sourcePoint" />
            <mxPoint x="550" y="260" as="targetPoint" />
            <Array as="points">
              <mxPoint x="300" y="220" />
            </Array>
          </mxGeometry>
        </mxCell>
        <mxCell id="2cnXxDh6B2zNEW4Uu-Ul-11" value="Verwaltung: String()" style="ellipse;whiteSpace=wrap;html=1;align=center;" vertex="1" parent="1">
          <mxGeometry x="560" y="530" width="100" height="40" as="geometry" />
        </mxCell>
        <mxCell id="2cnXxDh6B2zNEW4Uu-Ul-12" value="Büro" style="whiteSpace=wrap;html=1;align=center;" vertex="1" parent="1">
          <mxGeometry x="300" y="530" width="100" height="40" as="geometry" />
        </mxCell>
        <mxCell id="2cnXxDh6B2zNEW4Uu-Ul-13" value="hat" style="shape=rhombus;perimeter=rhombusPerimeter;whiteSpace=wrap;html=1;align=center;" vertex="1" parent="1">
          <mxGeometry x="140" y="440" width="60" height="50" as="geometry" />
        </mxCell>
        <mxCell id="2cnXxDh6B2zNEW4Uu-Ul-14" value="hat" style="shape=rhombus;perimeter=rhombusPerimeter;whiteSpace=wrap;html=1;align=center;" vertex="1" parent="1">
          <mxGeometry x="230" y="270" width="50" height="50" as="geometry" />
        </mxCell>
        <mxCell id="2cnXxDh6B2zNEW4Uu-Ul-15" value="" style="edgeStyle=entityRelationEdgeStyle;fontSize=12;html=1;endArrow=ERone;endFill=1;rounded=0;entryX=0;entryY=0.25;entryDx=0;entryDy=0;exitX=1;exitY=1;exitDx=0;exitDy=0;" edge="1" parent="1" source="2cnXxDh6B2zNEW4Uu-Ul-13" target="2cnXxDh6B2zNEW4Uu-Ul-12">
          <mxGeometry width="100" height="100" relative="1" as="geometry">
            <mxPoint x="180" y="550" as="sourcePoint" />
            <mxPoint x="280" y="450" as="targetPoint" />
            <Array as="points">
              <mxPoint x="120" y="600" />
            </Array>
          </mxGeometry>
        </mxCell>
        <mxCell id="2cnXxDh6B2zNEW4Uu-Ul-16" value="" style="edgeStyle=entityRelationEdgeStyle;fontSize=12;html=1;endArrow=ERone;endFill=1;rounded=0;entryX=0;entryY=0;entryDx=0;entryDy=0;exitX=0.5;exitY=1;exitDx=0;exitDy=0;" edge="1" parent="1" source="2cnXxDh6B2zNEW4Uu-Ul-2" target="2cnXxDh6B2zNEW4Uu-Ul-13">
          <mxGeometry width="100" height="100" relative="1" as="geometry">
            <mxPoint x="40" y="500" as="sourcePoint" />
            <mxPoint x="140" y="400" as="targetPoint" />
          </mxGeometry>
        </mxCell>
        <mxCell id="2cnXxDh6B2zNEW4Uu-Ul-17" value="" style="edgeStyle=entityRelationEdgeStyle;fontSize=12;html=1;endArrow=ERone;endFill=1;rounded=0;entryX=0;entryY=0.5;entryDx=0;entryDy=0;" edge="1" parent="1" target="2cnXxDh6B2zNEW4Uu-Ul-14">
          <mxGeometry width="100" height="100" relative="1" as="geometry">
            <mxPoint x="60" y="360" as="sourcePoint" />
            <mxPoint x="160" y="250" as="targetPoint" />
          </mxGeometry>
        </mxCell>
        <mxCell id="2cnXxDh6B2zNEW4Uu-Ul-18" value="" style="edgeStyle=entityRelationEdgeStyle;fontSize=12;html=1;endArrow=ERone;endFill=1;rounded=0;entryX=0;entryY=0.5;entryDx=0;entryDy=0;exitX=0.94;exitY=0.7;exitDx=0;exitDy=0;exitPerimeter=0;" edge="1" parent="1" target="2cnXxDh6B2zNEW4Uu-Ul-1">
          <mxGeometry width="100" height="100" relative="1" as="geometry">
            <mxPoint x="270" y="305" as="sourcePoint" />
            <mxPoint x="383" y="295" as="targetPoint" />
            <Array as="points">
              <mxPoint x="270" y="305" />
            </Array>
          </mxGeometry>
        </mxCell>
        <mxCell id="2cnXxDh6B2zNEW4Uu-Ul-19" value="" style="endArrow=none;html=1;rounded=0;exitX=0.39;exitY=1.05;exitDx=0;exitDy=0;exitPerimeter=0;" edge="1" parent="1" source="2cnXxDh6B2zNEW4Uu-Ul-2" target="2cnXxDh6B2zNEW4Uu-Ul-20">
          <mxGeometry relative="1" as="geometry">
            <mxPoint x="30" y="420" as="sourcePoint" />
            <mxPoint x="60" y="500" as="targetPoint" />
          </mxGeometry>
        </mxCell>
        <mxCell id="2cnXxDh6B2zNEW4Uu-Ul-20" value="Lager: Integer ()" style="ellipse;whiteSpace=wrap;html=1;align=center;" vertex="1" parent="1">
          <mxGeometry x="10" y="480" width="100" height="40" as="geometry" />
        </mxCell>
        <mxCell id="2cnXxDh6B2zNEW4Uu-Ul-21" value="Dienstleitung: ENUM ( Rep.)" style="ellipse;whiteSpace=wrap;html=1;align=center;" vertex="1" parent="1">
          <mxGeometry x="10" y="200" width="100" height="40" as="geometry" />
        </mxCell>
        <mxCell id="2cnXxDh6B2zNEW4Uu-Ul-22" value="" style="endArrow=none;html=1;rounded=0;exitX=0.5;exitY=1;exitDx=0;exitDy=0;" edge="1" parent="1" source="2cnXxDh6B2zNEW4Uu-Ul-21">
          <mxGeometry relative="1" as="geometry">
            <mxPoint x="30" y="420" as="sourcePoint" />
            <mxPoint x="60" y="360" as="targetPoint" />
          </mxGeometry>
        </mxCell>
        <mxCell id="2cnXxDh6B2zNEW4Uu-Ul-23" value="besitzt" style="shape=rhombus;perimeter=rhombusPerimeter;whiteSpace=wrap;html=1;align=center;" vertex="1" parent="1">
          <mxGeometry x="410" y="390" width="60" height="50" as="geometry" />
        </mxCell>
        <mxCell id="2cnXxDh6B2zNEW4Uu-Ul-24" value="" style="endArrow=none;html=1;rounded=0;exitX=0.5;exitY=1;exitDx=0;exitDy=0;" edge="1" parent="1" source="2cnXxDh6B2zNEW4Uu-Ul-1" target="2cnXxDh6B2zNEW4Uu-Ul-23">
          <mxGeometry relative="1" as="geometry">
            <mxPoint x="210" y="420" as="sourcePoint" />
            <mxPoint x="370" y="420" as="targetPoint" />
          </mxGeometry>
        </mxCell>
        <mxCell id="2cnXxDh6B2zNEW4Uu-Ul-25" value="" style="endArrow=none;html=1;rounded=0;exitX=0.5;exitY=0;exitDx=0;exitDy=0;entryX=0.5;entryY=1;entryDx=0;entryDy=0;" edge="1" parent="1" source="2cnXxDh6B2zNEW4Uu-Ul-12" target="2cnXxDh6B2zNEW4Uu-Ul-23">
          <mxGeometry relative="1" as="geometry">
            <mxPoint x="210" y="420" as="sourcePoint" />
            <mxPoint x="370" y="420" as="targetPoint" />
          </mxGeometry>
        </mxCell>
        <mxCell id="2cnXxDh6B2zNEW4Uu-Ul-26" value="Mechaniker" style="whiteSpace=wrap;html=1;align=center;" vertex="1" parent="1">
          <mxGeometry x="130" y="100" width="100" height="40" as="geometry" />
        </mxCell>
        <mxCell id="2cnXxDh6B2zNEW4Uu-Ul-27" value="" style="endArrow=none;html=1;rounded=0;" edge="1" parent="1">
          <mxGeometry relative="1" as="geometry">
            <mxPoint x="120" y="260" as="sourcePoint" />
            <mxPoint x="70" y="360" as="targetPoint" />
          </mxGeometry>
        </mxCell>
        <mxCell id="2cnXxDh6B2zNEW4Uu-Ul-28" value="hat" style="shape=rhombus;perimeter=rhombusPerimeter;whiteSpace=wrap;html=1;align=center;" vertex="1" parent="1">
          <mxGeometry x="110" y="230" width="50" height="50" as="geometry" />
        </mxCell>
        <mxCell id="2cnXxDh6B2zNEW4Uu-Ul-29" value="" style="endArrow=none;html=1;rounded=0;entryX=0.5;entryY=0;entryDx=0;entryDy=0;" edge="1" parent="1" target="2cnXxDh6B2zNEW4Uu-Ul-28">
          <mxGeometry relative="1" as="geometry">
            <mxPoint x="180" y="140" as="sourcePoint" />
            <mxPoint x="130" y="240" as="targetPoint" />
          </mxGeometry>
        </mxCell>
        <mxCell id="2cnXxDh6B2zNEW4Uu-Ul-31" value="" style="endArrow=none;html=1;rounded=0;exitX=1;exitY=0;exitDx=0;exitDy=0;" edge="1" parent="1" source="2cnXxDh6B2zNEW4Uu-Ul-28">
          <mxGeometry relative="1" as="geometry">
            <mxPoint x="230" y="340" as="sourcePoint" />
            <mxPoint x="300" y="100" as="targetPoint" />
          </mxGeometry>
        </mxCell>
        <mxCell id="2cnXxDh6B2zNEW4Uu-Ul-32" value="Kunden" style="whiteSpace=wrap;html=1;align=center;" vertex="1" parent="1">
          <mxGeometry x="280" y="70" width="100" height="40" as="geometry" />
        </mxCell>
        <mxCell id="2cnXxDh6B2zNEW4Uu-Ul-33" value="" style="endArrow=none;html=1;rounded=0;entryX=0;entryY=0.5;entryDx=0;entryDy=0;" edge="1" parent="1" target="2cnXxDh6B2zNEW4Uu-Ul-11">
          <mxGeometry relative="1" as="geometry">
            <mxPoint x="400" y="550" as="sourcePoint" />
            <mxPoint x="550" y="549" as="targetPoint" />
          </mxGeometry>
        </mxCell>
        <mxCell id="2cnXxDh6B2zNEW4Uu-Ul-34" value="Rechnung: double()" style="ellipse;whiteSpace=wrap;html=1;align=center;" vertex="1" parent="1">
          <mxGeometry x="450" y="620" width="100" height="40" as="geometry" />
        </mxCell>
        <mxCell id="2cnXxDh6B2zNEW4Uu-Ul-35" value="" style="endArrow=none;html=1;rounded=0;exitX=0.57;exitY=1;exitDx=0;exitDy=0;exitPerimeter=0;" edge="1" parent="1" source="2cnXxDh6B2zNEW4Uu-Ul-12" target="2cnXxDh6B2zNEW4Uu-Ul-34">
          <mxGeometry relative="1" as="geometry">
            <mxPoint x="350" y="590" as="sourcePoint" />
            <mxPoint x="505" y="600" as="targetPoint" />
          </mxGeometry>
        </mxCell>
        <mxCell id="2cnXxDh6B2zNEW4Uu-Ul-36" value="SSVN: VARCHARt (30)" style="ellipse;whiteSpace=wrap;html=1;align=center;fontStyle=4;" vertex="1" parent="1">
          <mxGeometry x="40" y="10" width="100" height="40" as="geometry" />
        </mxCell>
        <mxCell id="2cnXxDh6B2zNEW4Uu-Ul-38" value="" style="endArrow=none;html=1;rounded=0;exitX=0.5;exitY=1;exitDx=0;exitDy=0;entryX=0.17;entryY=-0.025;entryDx=0;entryDy=0;entryPerimeter=0;" edge="1" parent="1" source="2cnXxDh6B2zNEW4Uu-Ul-36" target="2cnXxDh6B2zNEW4Uu-Ul-26">
          <mxGeometry relative="1" as="geometry">
            <mxPoint x="110" y="90" as="sourcePoint" />
            <mxPoint x="380" y="250" as="targetPoint" />
          </mxGeometry>
        </mxCell>
        <mxCell id="2cnXxDh6B2zNEW4Uu-Ul-39" value="1" style="resizable=0;html=1;whiteSpace=wrap;align=right;verticalAlign=bottom;" connectable="0" vertex="1" parent="2cnXxDh6B2zNEW4Uu-Ul-38">
          <mxGeometry x="1" relative="1" as="geometry" />
        </mxCell>
        <mxCell id="2cnXxDh6B2zNEW4Uu-Ul-40" value="KundenNr. INT (10)" style="ellipse;whiteSpace=wrap;html=1;align=center;fontStyle=4;" vertex="1" parent="1">
          <mxGeometry x="290" width="100" height="40" as="geometry" />
        </mxCell>
        <mxCell id="2cnXxDh6B2zNEW4Uu-Ul-41" value="" style="endArrow=none;html=1;rounded=0;exitX=0.5;exitY=1;exitDx=0;exitDy=0;entryX=0.5;entryY=0;entryDx=0;entryDy=0;" edge="1" parent="1" source="2cnXxDh6B2zNEW4Uu-Ul-40" target="2cnXxDh6B2zNEW4Uu-Ul-32">
          <mxGeometry relative="1" as="geometry">
            <mxPoint x="280" y="270" as="sourcePoint" />
            <mxPoint x="440" y="270" as="targetPoint" />
          </mxGeometry>
        </mxCell>
        <mxCell id="2cnXxDh6B2zNEW4Uu-Ul-42" value="1" style="resizable=0;html=1;whiteSpace=wrap;align=right;verticalAlign=bottom;" connectable="0" vertex="1" parent="2cnXxDh6B2zNEW4Uu-Ul-41">
          <mxGeometry x="1" relative="1" as="geometry" />
        </mxCell>
        <mxCell id="2cnXxDh6B2zNEW4Uu-Ul-44" value="Auftragsnummer: INT (10)" style="ellipse;whiteSpace=wrap;html=1;align=center;" vertex="1" parent="1">
          <mxGeometry x="470" width="100" height="40" as="geometry" />
        </mxCell>
        <mxCell id="2cnXxDh6B2zNEW4Uu-Ul-45" value="" style="endArrow=none;html=1;rounded=0;exitX=1;exitY=0.25;exitDx=0;exitDy=0;entryX=0;entryY=0.5;entryDx=0;entryDy=0;" edge="1" parent="1" source="2cnXxDh6B2zNEW4Uu-Ul-32" target="2cnXxDh6B2zNEW4Uu-Ul-44">
          <mxGeometry relative="1" as="geometry">
            <mxPoint x="280" y="270" as="sourcePoint" />
            <mxPoint x="480" y="50" as="targetPoint" />
          </mxGeometry>
        </mxCell>
        <mxCell id="2cnXxDh6B2zNEW4Uu-Ul-46" value="M" style="resizable=0;html=1;whiteSpace=wrap;align=left;verticalAlign=bottom;" connectable="0" vertex="1" parent="2cnXxDh6B2zNEW4Uu-Ul-45">
          <mxGeometry x="-1" relative="1" as="geometry" />
        </mxCell>
        <mxCell id="2cnXxDh6B2zNEW4Uu-Ul-47" value="N" style="resizable=0;html=1;whiteSpace=wrap;align=right;verticalAlign=bottom;" connectable="0" vertex="1" parent="2cnXxDh6B2zNEW4Uu-Ul-45">
          <mxGeometry x="1" relative="1" as="geometry" />
        </mxCell>
        <mxCell id="2cnXxDh6B2zNEW4Uu-Ul-48" value="Kapazitäten: INT ()" style="ellipse;shape=doubleEllipse;margin=3;whiteSpace=wrap;html=1;align=center;" vertex="1" parent="1">
          <mxGeometry y="600" width="100" height="40" as="geometry" />
        </mxCell>
        <mxCell id="2cnXxDh6B2zNEW4Uu-Ul-49" value="Verkauf: IINT ()" style="ellipse;shape=doubleEllipse;margin=3;whiteSpace=wrap;html=1;align=center;" vertex="1" parent="1">
          <mxGeometry x="120" y="600" width="100" height="40" as="geometry" />
        </mxCell>
        <mxCell id="2cnXxDh6B2zNEW4Uu-Ul-50" value="" style="endArrow=none;html=1;rounded=0;entryX=0.374;entryY=-0.084;entryDx=0;entryDy=0;entryPerimeter=0;" edge="1" parent="1" source="2cnXxDh6B2zNEW4Uu-Ul-20" target="2cnXxDh6B2zNEW4Uu-Ul-49">
          <mxGeometry relative="1" as="geometry">
            <mxPoint x="30" y="549" as="sourcePoint" />
            <mxPoint x="190" y="549" as="targetPoint" />
          </mxGeometry>
        </mxCell>
        <mxCell id="2cnXxDh6B2zNEW4Uu-Ul-51" value="" style="endArrow=none;html=1;rounded=0;entryX=0.292;entryY=0.034;entryDx=0;entryDy=0;entryPerimeter=0;exitX=0.239;exitY=1.034;exitDx=0;exitDy=0;exitPerimeter=0;" edge="1" parent="1" source="2cnXxDh6B2zNEW4Uu-Ul-20" target="2cnXxDh6B2zNEW4Uu-Ul-48">
          <mxGeometry relative="1" as="geometry">
            <mxPoint x="10" y="562" as="sourcePoint" />
            <mxPoint x="88" y="640" as="targetPoint" />
          </mxGeometry>
        </mxCell>
      </root>
    </mxGraphModel>
  </diagram>
</mxfile>
